<mxfile host="app.diagrams.net" modified="2022-04-29T05:08:24.322Z" agent="5.0 (X11; Linux x86_64) AppleWebKit/537.36 (KHTML, like Gecko) Chrome/94.0.4606.81 Safari/537.36" etag="qYNR68rDX0IQMIFLGs6n" version="17.4.6" type="github">
  <diagram id="dGNfXg8ryN5YxJEa8egZ" name="Page-1">
    <mxGraphModel dx="1695" dy="1633" grid="1" gridSize="10" guides="1" tooltips="1" connect="1" arrows="1" fold="1" page="1" pageScale="1" pageWidth="827" pageHeight="1169" math="0" shadow="0">
      <root>
        <mxCell id="0" />
        <mxCell id="1" parent="0" />
        <mxCell id="-m2lDpHRq8-kHT6CYHwG-1" value="" style="rounded=0;whiteSpace=wrap;html=1;strokeColor=#999999;" vertex="1" parent="1">
          <mxGeometry x="10" y="10" width="340" height="190" as="geometry" />
        </mxCell>
        <mxCell id="-m2lDpHRq8-kHT6CYHwG-7" style="edgeStyle=orthogonalEdgeStyle;rounded=0;orthogonalLoop=1;jettySize=auto;html=1;exitX=1;exitY=0.5;exitDx=0;exitDy=0;entryX=0;entryY=0.5;entryDx=0;entryDy=0;" edge="1" parent="1" source="-m2lDpHRq8-kHT6CYHwG-2" target="-m2lDpHRq8-kHT6CYHwG-5">
          <mxGeometry relative="1" as="geometry" />
        </mxCell>
        <mxCell id="-m2lDpHRq8-kHT6CYHwG-8" style="edgeStyle=orthogonalEdgeStyle;rounded=0;orthogonalLoop=1;jettySize=auto;html=1;exitX=0.5;exitY=0;exitDx=0;exitDy=0;" edge="1" parent="1" source="-m2lDpHRq8-kHT6CYHwG-2" target="-m2lDpHRq8-kHT6CYHwG-4">
          <mxGeometry relative="1" as="geometry" />
        </mxCell>
        <mxCell id="-m2lDpHRq8-kHT6CYHwG-9" style="edgeStyle=orthogonalEdgeStyle;rounded=0;orthogonalLoop=1;jettySize=auto;html=1;exitX=0;exitY=0.5;exitDx=0;exitDy=0;" edge="1" parent="1" source="-m2lDpHRq8-kHT6CYHwG-2" target="-m2lDpHRq8-kHT6CYHwG-3">
          <mxGeometry relative="1" as="geometry" />
        </mxCell>
        <mxCell id="-m2lDpHRq8-kHT6CYHwG-41" style="edgeStyle=orthogonalEdgeStyle;rounded=0;orthogonalLoop=1;jettySize=auto;html=1;exitX=0.5;exitY=1;exitDx=0;exitDy=0;entryX=0.5;entryY=0;entryDx=0;entryDy=0;dashed=1;strokeColor=none;startArrow=classic;startFill=1;" edge="1" parent="1" source="-m2lDpHRq8-kHT6CYHwG-2" target="-m2lDpHRq8-kHT6CYHwG-39">
          <mxGeometry relative="1" as="geometry" />
        </mxCell>
        <mxCell id="-m2lDpHRq8-kHT6CYHwG-2" value="account" style="rounded=1;whiteSpace=wrap;html=1;fillColor=#FAEC2B;strokeColor=#b46504;" vertex="1" parent="1">
          <mxGeometry x="144" y="110" width="70" height="60" as="geometry" />
        </mxCell>
        <mxCell id="-m2lDpHRq8-kHT6CYHwG-3" value="auth" style="rounded=1;whiteSpace=wrap;html=1;" vertex="1" parent="1">
          <mxGeometry x="44" y="110" width="70" height="60" as="geometry" />
        </mxCell>
        <mxCell id="-m2lDpHRq8-kHT6CYHwG-4" value="balance" style="rounded=1;whiteSpace=wrap;html=1;fillColor=#FFFF99;strokeColor=#b46504;" vertex="1" parent="1">
          <mxGeometry x="144" y="30" width="70" height="60" as="geometry" />
        </mxCell>
        <mxCell id="-m2lDpHRq8-kHT6CYHwG-5" value="role" style="rounded=1;whiteSpace=wrap;html=1;fillColor=#FFFF99;strokeColor=#b46504;" vertex="1" parent="1">
          <mxGeometry x="244" y="110" width="70" height="60" as="geometry" />
        </mxCell>
        <mxCell id="-m2lDpHRq8-kHT6CYHwG-10" value="Auth Domain" style="text;html=1;strokeColor=none;fillColor=none;align=center;verticalAlign=middle;whiteSpace=wrap;rounded=0;" vertex="1" parent="1">
          <mxGeometry x="10" y="20" width="80" height="30" as="geometry" />
        </mxCell>
        <mxCell id="-m2lDpHRq8-kHT6CYHwG-11" value="" style="rounded=0;whiteSpace=wrap;html=1;strokeColor=#999999;" vertex="1" parent="1">
          <mxGeometry x="-90" y="350" width="460" height="340" as="geometry" />
        </mxCell>
        <mxCell id="-m2lDpHRq8-kHT6CYHwG-14" style="edgeStyle=orthogonalEdgeStyle;rounded=0;orthogonalLoop=1;jettySize=auto;html=1;exitX=0;exitY=0.5;exitDx=0;exitDy=0;startArrow=none;" edge="1" parent="1" source="-m2lDpHRq8-kHT6CYHwG-39" target="-m2lDpHRq8-kHT6CYHwG-16">
          <mxGeometry relative="1" as="geometry" />
        </mxCell>
        <mxCell id="-m2lDpHRq8-kHT6CYHwG-44" style="edgeStyle=orthogonalEdgeStyle;rounded=0;orthogonalLoop=1;jettySize=auto;html=1;startArrow=none;startFill=0;strokeColor=default;" edge="1" parent="1" source="-m2lDpHRq8-kHT6CYHwG-15" target="-m2lDpHRq8-kHT6CYHwG-43">
          <mxGeometry relative="1" as="geometry" />
        </mxCell>
        <mxCell id="-m2lDpHRq8-kHT6CYHwG-46" style="edgeStyle=orthogonalEdgeStyle;rounded=0;orthogonalLoop=1;jettySize=auto;html=1;entryX=0.5;entryY=0;entryDx=0;entryDy=0;startArrow=none;startFill=0;strokeColor=default;" edge="1" parent="1" source="-m2lDpHRq8-kHT6CYHwG-15" target="-m2lDpHRq8-kHT6CYHwG-45">
          <mxGeometry relative="1" as="geometry" />
        </mxCell>
        <mxCell id="-m2lDpHRq8-kHT6CYHwG-15" value="task" style="rounded=1;whiteSpace=wrap;html=1;fillColor=#FAEC2B;strokeColor=#b46504;" vertex="1" parent="1">
          <mxGeometry x="185" y="390" width="70" height="60" as="geometry" />
        </mxCell>
        <mxCell id="-m2lDpHRq8-kHT6CYHwG-72" style="edgeStyle=orthogonalEdgeStyle;rounded=0;orthogonalLoop=1;jettySize=auto;html=1;entryX=0;entryY=0.5;entryDx=0;entryDy=0;startArrow=none;startFill=0;strokeColor=#10739e;fillColor=#b1ddf0;exitX=1;exitY=0.25;exitDx=0;exitDy=0;" edge="1" parent="1" source="-m2lDpHRq8-kHT6CYHwG-39" target="-m2lDpHRq8-kHT6CYHwG-69">
          <mxGeometry relative="1" as="geometry">
            <Array as="points">
              <mxPoint x="135" y="405" />
              <mxPoint x="135" y="390" />
            </Array>
          </mxGeometry>
        </mxCell>
        <mxCell id="-m2lDpHRq8-kHT6CYHwG-16" value="dash" style="rounded=1;whiteSpace=wrap;html=1;" vertex="1" parent="1">
          <mxGeometry x="-75" y="390" width="70" height="60" as="geometry" />
        </mxCell>
        <mxCell id="-m2lDpHRq8-kHT6CYHwG-19" value="Tasks Domain" style="text;html=1;strokeColor=none;fillColor=none;align=center;verticalAlign=middle;whiteSpace=wrap;rounded=0;" vertex="1" parent="1">
          <mxGeometry x="-75" y="350" width="80" height="30" as="geometry" />
        </mxCell>
        <mxCell id="-m2lDpHRq8-kHT6CYHwG-20" value="" style="rounded=0;whiteSpace=wrap;html=1;strokeColor=#999999;" vertex="1" parent="1">
          <mxGeometry x="414" y="20" width="396" height="390" as="geometry" />
        </mxCell>
        <mxCell id="-m2lDpHRq8-kHT6CYHwG-25" value="dash&lt;br&gt;accounting" style="rounded=1;whiteSpace=wrap;html=1;" vertex="1" parent="1">
          <mxGeometry x="460" y="230" width="70" height="60" as="geometry" />
        </mxCell>
        <mxCell id="-m2lDpHRq8-kHT6CYHwG-64" style="edgeStyle=orthogonalEdgeStyle;rounded=0;orthogonalLoop=1;jettySize=auto;html=1;entryX=1;entryY=0.5;entryDx=0;entryDy=0;startArrow=none;startFill=0;strokeColor=default;" edge="1" parent="1" source="-m2lDpHRq8-kHT6CYHwG-26" target="-m2lDpHRq8-kHT6CYHwG-60">
          <mxGeometry relative="1" as="geometry" />
        </mxCell>
        <mxCell id="-m2lDpHRq8-kHT6CYHwG-79" style="edgeStyle=orthogonalEdgeStyle;rounded=0;orthogonalLoop=1;jettySize=auto;html=1;entryX=1;entryY=0.5;entryDx=0;entryDy=0;startArrow=none;startFill=0;strokeColor=default;" edge="1" parent="1" source="-m2lDpHRq8-kHT6CYHwG-26" target="-m2lDpHRq8-kHT6CYHwG-25">
          <mxGeometry relative="1" as="geometry">
            <Array as="points">
              <mxPoint x="635" y="260" />
            </Array>
          </mxGeometry>
        </mxCell>
        <mxCell id="-m2lDpHRq8-kHT6CYHwG-90" style="edgeStyle=orthogonalEdgeStyle;rounded=0;orthogonalLoop=1;jettySize=auto;html=1;entryX=1;entryY=0.25;entryDx=0;entryDy=0;startArrow=none;startFill=0;strokeColor=default;" edge="1" parent="1" source="-m2lDpHRq8-kHT6CYHwG-26" target="-m2lDpHRq8-kHT6CYHwG-81">
          <mxGeometry relative="1" as="geometry">
            <Array as="points">
              <mxPoint x="620" y="315" />
            </Array>
          </mxGeometry>
        </mxCell>
        <mxCell id="-m2lDpHRq8-kHT6CYHwG-26" value="pay by task" style="rounded=1;whiteSpace=wrap;html=1;fillColor=#FFFF00;strokeColor=#b46504;" vertex="1" parent="1">
          <mxGeometry x="600" y="150" width="70" height="60" as="geometry" />
        </mxCell>
        <mxCell id="-m2lDpHRq8-kHT6CYHwG-54" style="edgeStyle=orthogonalEdgeStyle;rounded=0;orthogonalLoop=1;jettySize=auto;html=1;startArrow=none;startFill=0;strokeColor=default;" edge="1" parent="1" source="-m2lDpHRq8-kHT6CYHwG-27" target="-m2lDpHRq8-kHT6CYHwG-26">
          <mxGeometry relative="1" as="geometry" />
        </mxCell>
        <mxCell id="-m2lDpHRq8-kHT6CYHwG-56" style="edgeStyle=orthogonalEdgeStyle;rounded=0;orthogonalLoop=1;jettySize=auto;html=1;startArrow=classic;startFill=1;strokeColor=default;entryX=0.5;entryY=1;entryDx=0;entryDy=0;dashed=1;" edge="1" parent="1" source="-m2lDpHRq8-kHT6CYHwG-27" target="-m2lDpHRq8-kHT6CYHwG-2">
          <mxGeometry relative="1" as="geometry">
            <mxPoint x="180" y="180" as="targetPoint" />
            <Array as="points">
              <mxPoint x="430" y="60" />
              <mxPoint x="430" y="210" />
              <mxPoint x="180" y="210" />
            </Array>
          </mxGeometry>
        </mxCell>
        <mxCell id="-m2lDpHRq8-kHT6CYHwG-61" style="edgeStyle=orthogonalEdgeStyle;rounded=0;orthogonalLoop=1;jettySize=auto;html=1;startArrow=none;startFill=0;strokeColor=default;" edge="1" parent="1" source="-m2lDpHRq8-kHT6CYHwG-27" target="-m2lDpHRq8-kHT6CYHwG-60">
          <mxGeometry relative="1" as="geometry">
            <Array as="points">
              <mxPoint x="475" y="70" />
            </Array>
          </mxGeometry>
        </mxCell>
        <mxCell id="-m2lDpHRq8-kHT6CYHwG-87" style="edgeStyle=orthogonalEdgeStyle;rounded=0;orthogonalLoop=1;jettySize=auto;html=1;startArrow=none;startFill=0;strokeColor=default;" edge="1" parent="1" source="-m2lDpHRq8-kHT6CYHwG-27">
          <mxGeometry relative="1" as="geometry">
            <mxPoint x="635" y="260" as="targetPoint" />
            <Array as="points">
              <mxPoint x="700" y="60" />
              <mxPoint x="700" y="260" />
            </Array>
          </mxGeometry>
        </mxCell>
        <mxCell id="-m2lDpHRq8-kHT6CYHwG-89" style="edgeStyle=orthogonalEdgeStyle;rounded=0;orthogonalLoop=1;jettySize=auto;html=1;entryX=1;entryY=0.5;entryDx=0;entryDy=0;startArrow=none;startFill=0;strokeColor=default;" edge="1" parent="1" source="-m2lDpHRq8-kHT6CYHwG-27" target="-m2lDpHRq8-kHT6CYHwG-81">
          <mxGeometry relative="1" as="geometry">
            <Array as="points">
              <mxPoint x="700" y="60" />
              <mxPoint x="700" y="330" />
            </Array>
          </mxGeometry>
        </mxCell>
        <mxCell id="-m2lDpHRq8-kHT6CYHwG-27" value="account" style="rounded=1;whiteSpace=wrap;html=1;" vertex="1" parent="1">
          <mxGeometry x="600" y="30" width="70" height="60" as="geometry" />
        </mxCell>
        <mxCell id="-m2lDpHRq8-kHT6CYHwG-28" value="Audit Domain" style="text;html=1;strokeColor=none;fillColor=none;align=center;verticalAlign=middle;whiteSpace=wrap;rounded=0;" vertex="1" parent="1">
          <mxGeometry x="414" y="20" width="80" height="30" as="geometry" />
        </mxCell>
        <mxCell id="-m2lDpHRq8-kHT6CYHwG-42" style="edgeStyle=orthogonalEdgeStyle;rounded=0;orthogonalLoop=1;jettySize=auto;html=1;dashed=1;startArrow=classic;startFill=1;strokeColor=default;entryX=0.5;entryY=0;entryDx=0;entryDy=0;" edge="1" parent="1" source="-m2lDpHRq8-kHT6CYHwG-2" target="-m2lDpHRq8-kHT6CYHwG-39">
          <mxGeometry relative="1" as="geometry">
            <mxPoint x="30" y="280" as="targetPoint" />
            <Array as="points">
              <mxPoint x="179" y="210" />
              <mxPoint x="60" y="210" />
              <mxPoint x="60" y="280" />
              <mxPoint x="57" y="280" />
            </Array>
          </mxGeometry>
        </mxCell>
        <mxCell id="-m2lDpHRq8-kHT6CYHwG-48" style="edgeStyle=orthogonalEdgeStyle;rounded=0;orthogonalLoop=1;jettySize=auto;html=1;entryX=0.5;entryY=0;entryDx=0;entryDy=0;startArrow=none;startFill=0;strokeColor=default;" edge="1" parent="1" source="-m2lDpHRq8-kHT6CYHwG-43" target="-m2lDpHRq8-kHT6CYHwG-47">
          <mxGeometry relative="1" as="geometry">
            <Array as="points">
              <mxPoint x="179" y="590" />
              <mxPoint x="220" y="590" />
            </Array>
          </mxGeometry>
        </mxCell>
        <mxCell id="-m2lDpHRq8-kHT6CYHwG-43" value="status" style="rounded=1;whiteSpace=wrap;html=1;fillColor=#FFFF99;strokeColor=#b46504;" vertex="1" parent="1">
          <mxGeometry x="144" y="505" width="70" height="60" as="geometry" />
        </mxCell>
        <mxCell id="-m2lDpHRq8-kHT6CYHwG-49" style="edgeStyle=orthogonalEdgeStyle;rounded=0;orthogonalLoop=1;jettySize=auto;html=1;startArrow=none;startFill=0;strokeColor=default;entryX=0.5;entryY=0;entryDx=0;entryDy=0;" edge="1" parent="1" source="-m2lDpHRq8-kHT6CYHwG-45" target="-m2lDpHRq8-kHT6CYHwG-47">
          <mxGeometry relative="1" as="geometry">
            <mxPoint x="220" y="600" as="targetPoint" />
            <Array as="points">
              <mxPoint x="265" y="590" />
              <mxPoint x="220" y="590" />
            </Array>
          </mxGeometry>
        </mxCell>
        <mxCell id="-m2lDpHRq8-kHT6CYHwG-45" value="price" style="rounded=1;whiteSpace=wrap;html=1;fillColor=#FFFF99;strokeColor=#b46504;" vertex="1" parent="1">
          <mxGeometry x="230" y="505" width="70" height="60" as="geometry" />
        </mxCell>
        <mxCell id="-m2lDpHRq8-kHT6CYHwG-73" style="edgeStyle=orthogonalEdgeStyle;rounded=0;orthogonalLoop=1;jettySize=auto;html=1;startArrow=none;startFill=0;strokeColor=default;entryX=0.75;entryY=1;entryDx=0;entryDy=0;dashed=1;" edge="1" parent="1" source="-m2lDpHRq8-kHT6CYHwG-47" target="-m2lDpHRq8-kHT6CYHwG-26">
          <mxGeometry relative="1" as="geometry">
            <mxPoint x="670" y="430" as="targetPoint" />
            <Array as="points">
              <mxPoint x="653" y="650" />
              <mxPoint x="653" y="240" />
            </Array>
          </mxGeometry>
        </mxCell>
        <mxCell id="-m2lDpHRq8-kHT6CYHwG-47" value="pay by task" style="rounded=1;whiteSpace=wrap;html=1;" vertex="1" parent="1">
          <mxGeometry x="185" y="620" width="70" height="60" as="geometry" />
        </mxCell>
        <mxCell id="-m2lDpHRq8-kHT6CYHwG-55" style="edgeStyle=orthogonalEdgeStyle;rounded=0;orthogonalLoop=1;jettySize=auto;html=1;startArrow=none;startFill=0;strokeColor=default;" edge="1" parent="1" source="-m2lDpHRq8-kHT6CYHwG-50" target="-m2lDpHRq8-kHT6CYHwG-26">
          <mxGeometry relative="1" as="geometry" />
        </mxCell>
        <mxCell id="-m2lDpHRq8-kHT6CYHwG-50" value="task" style="rounded=1;whiteSpace=wrap;html=1;" vertex="1" parent="1">
          <mxGeometry x="720" y="150" width="70" height="60" as="geometry" />
        </mxCell>
        <mxCell id="-m2lDpHRq8-kHT6CYHwG-57" style="edgeStyle=orthogonalEdgeStyle;rounded=0;orthogonalLoop=1;jettySize=auto;html=1;dashed=1;startArrow=classic;startFill=1;strokeColor=default;exitX=0.5;exitY=0;exitDx=0;exitDy=0;" edge="1" parent="1" source="-m2lDpHRq8-kHT6CYHwG-15" target="-m2lDpHRq8-kHT6CYHwG-50">
          <mxGeometry relative="1" as="geometry">
            <Array as="points">
              <mxPoint x="220" y="370" />
              <mxPoint x="755" y="370" />
            </Array>
          </mxGeometry>
        </mxCell>
        <mxCell id="-m2lDpHRq8-kHT6CYHwG-71" style="edgeStyle=orthogonalEdgeStyle;rounded=0;orthogonalLoop=1;jettySize=auto;html=1;entryX=0.5;entryY=0;entryDx=0;entryDy=0;startArrow=none;startFill=0;strokeColor=#10739e;fillColor=#b1ddf0;" edge="1" parent="1" source="-m2lDpHRq8-kHT6CYHwG-58" target="-m2lDpHRq8-kHT6CYHwG-69">
          <mxGeometry relative="1" as="geometry">
            <Array as="points">
              <mxPoint x="390" y="130" />
              <mxPoint x="390" y="260" />
              <mxPoint x="170" y="260" />
              <mxPoint x="170" y="330" />
              <mxPoint x="179" y="330" />
            </Array>
          </mxGeometry>
        </mxCell>
        <mxCell id="-m2lDpHRq8-kHT6CYHwG-58" value="periodic&amp;nbsp; calculate" style="rounded=1;whiteSpace=wrap;html=1;" vertex="1" parent="1">
          <mxGeometry x="494" y="100" width="66" height="60" as="geometry" />
        </mxCell>
        <mxCell id="-m2lDpHRq8-kHT6CYHwG-78" style="edgeStyle=orthogonalEdgeStyle;rounded=0;orthogonalLoop=1;jettySize=auto;html=1;startArrow=none;startFill=0;strokeColor=default;" edge="1" parent="1" source="-m2lDpHRq8-kHT6CYHwG-60" target="-m2lDpHRq8-kHT6CYHwG-25">
          <mxGeometry relative="1" as="geometry" />
        </mxCell>
        <mxCell id="-m2lDpHRq8-kHT6CYHwG-60" value="pay by day" style="rounded=1;whiteSpace=wrap;html=1;fillColor=#FFFF00;strokeColor=#b46504;" vertex="1" parent="1">
          <mxGeometry x="460" y="150" width="70" height="60" as="geometry" />
        </mxCell>
        <mxCell id="-m2lDpHRq8-kHT6CYHwG-69" value="Assign" style="rounded=1;whiteSpace=wrap;html=1;strokeColor=#0e8088;fillColor=#b0e3e6;" vertex="1" parent="1">
          <mxGeometry x="154" y="370" width="50" height="40" as="geometry" />
        </mxCell>
        <mxCell id="-m2lDpHRq8-kHT6CYHwG-39" value="account&lt;br&gt;activity" style="rounded=1;whiteSpace=wrap;html=1;" vertex="1" parent="1">
          <mxGeometry x="24" y="390" width="66" height="60" as="geometry" />
        </mxCell>
        <mxCell id="-m2lDpHRq8-kHT6CYHwG-74" value="" style="edgeStyle=orthogonalEdgeStyle;rounded=0;orthogonalLoop=1;jettySize=auto;html=1;exitX=0;exitY=0.5;exitDx=0;exitDy=0;endArrow=none;startArrow=classic;startFill=1;" edge="1" parent="1" source="-m2lDpHRq8-kHT6CYHwG-15" target="-m2lDpHRq8-kHT6CYHwG-39">
          <mxGeometry relative="1" as="geometry">
            <mxPoint x="185" y="420" as="sourcePoint" />
            <mxPoint x="95" y="420" as="targetPoint" />
          </mxGeometry>
        </mxCell>
        <mxCell id="-m2lDpHRq8-kHT6CYHwG-76" style="edgeStyle=orthogonalEdgeStyle;rounded=0;orthogonalLoop=1;jettySize=auto;html=1;dashed=1;startArrow=classic;startFill=1;strokeColor=default;entryX=0.5;entryY=1;entryDx=0;entryDy=0;" edge="1" parent="1" source="-m2lDpHRq8-kHT6CYHwG-75" target="-m2lDpHRq8-kHT6CYHwG-2">
          <mxGeometry relative="1" as="geometry">
            <mxPoint x="180" y="180" as="targetPoint" />
            <Array as="points">
              <mxPoint x="293" y="290" />
              <mxPoint x="180" y="290" />
            </Array>
          </mxGeometry>
        </mxCell>
        <mxCell id="-m2lDpHRq8-kHT6CYHwG-77" style="edgeStyle=orthogonalEdgeStyle;rounded=0;orthogonalLoop=1;jettySize=auto;html=1;startArrow=none;startFill=0;strokeColor=default;" edge="1" parent="1" source="-m2lDpHRq8-kHT6CYHwG-75" target="-m2lDpHRq8-kHT6CYHwG-15">
          <mxGeometry relative="1" as="geometry" />
        </mxCell>
        <mxCell id="-m2lDpHRq8-kHT6CYHwG-75" value="account data" style="rounded=1;whiteSpace=wrap;html=1;" vertex="1" parent="1">
          <mxGeometry x="285" y="390" width="66" height="60" as="geometry" />
        </mxCell>
        <mxCell id="-m2lDpHRq8-kHT6CYHwG-81" value="dash&lt;br&gt;analytics" style="rounded=1;whiteSpace=wrap;html=1;" vertex="1" parent="1">
          <mxGeometry x="460" y="300" width="70" height="60" as="geometry" />
        </mxCell>
        <mxCell id="-m2lDpHRq8-kHT6CYHwG-93" style="edgeStyle=orthogonalEdgeStyle;rounded=0;orthogonalLoop=1;jettySize=auto;html=1;entryX=0.5;entryY=0;entryDx=0;entryDy=0;startArrow=none;startFill=0;strokeColor=#10739e;fillColor=#b1ddf0;" edge="1" parent="1" source="-m2lDpHRq8-kHT6CYHwG-91" target="-m2lDpHRq8-kHT6CYHwG-92">
          <mxGeometry relative="1" as="geometry">
            <Array as="points">
              <mxPoint x="680" y="-10" />
              <mxPoint x="155" y="-10" />
            </Array>
          </mxGeometry>
        </mxCell>
        <mxCell id="-m2lDpHRq8-kHT6CYHwG-91" value="create" style="rounded=1;whiteSpace=wrap;html=1;strokeColor=#b46504;fillColor=#fad7ac;" vertex="1" parent="1">
          <mxGeometry x="650" y="125" width="40" height="30" as="geometry" />
        </mxCell>
        <mxCell id="-m2lDpHRq8-kHT6CYHwG-92" value="change" style="rounded=1;whiteSpace=wrap;html=1;strokeColor=#0e8088;fillColor=#b0e3e6;" vertex="1" parent="1">
          <mxGeometry x="130" y="10" width="50" height="30" as="geometry" />
        </mxCell>
      </root>
    </mxGraphModel>
  </diagram>
</mxfile>
